<svg version="1.0" 
  xmlns="http://www.w3.org/2000/svg" viewBox="0 0 1500 1500">
  <path d="M621 566.9c-18.6 6-20.6 6.9-22.2 9.7-1.7 2.9-1.6 8.4 1.7 139 3.8 148.4 3.2 140 9.5 143.7 2.4 1.4 6 1.7 23.7 1.7l20.8.1 21.5-6.8 21.5-6.8-21-.5c-22.6-.5-24.8-1-27.7-6.2-.9-1.7-2.1-37.6-4.7-138.3-3.2-125.7-3.3-136.3-1.9-139.3 1.1-2.2 1.3-3.2.5-3.1-.7 0-10.4 3.1-21.7 6.8zM808.7 601.5c-10.9 3.5-20.9 7.1-22.1 7.9-4.7 3-4.9 4.9-3.8 44.2l.9 36.6 19.4 19.4c19.6 19.6 22.6 21.8 24.7 17.6.5-1 .2-27.8-.7-63.1l-1.5-61.4 2.1-3.8c1.2-2.2 1.8-3.9 1.5-3.8-.4 0-9.6 2.9-20.5 6.4zM55.2 602.9c-11.7 3.8-22.2 7.7-23.2 8.6-4.3 3.9-4.3 4.2-2.6 69.2.9 34 2.8 104.8 4.1 157.3 1.4 52.5 2.8 96.9 3.1 98.7.7 3.9 3.8 7.3 6.6 7.3 1.2 0 10.5-2.7 20.7-5.9s19.7-6.2 21.1-6.6c2.4-.8 2.5-.8.3-1.6-5.5-2-5.3.2-7.9-99.3-1.3-50.6-3-117.7-3.9-149-.8-31.4-1.5-62-1.5-68.2 0-10.6.1-11.4 2.6-14.3 1.4-1.7 2.4-3.1 2.2-3.1-.1.1-9.9 3.2-21.6 6.9zM341.4 602.4c-10.6 3.4-20.3 6.7-21.7 7.3l-2.4 1.1.5 18c.5 17.4.4 18.1-1.8 22l-2.3 4.2 3.1 124.5c2.6 99.6 3.5 125.2 4.6 128 2.7 6.3 3.4 6.3 27.1-1.2l21.5-6.7-2.4-2.6c-1.3-1.4-2.6-3.4-3.1-4.5-.8-2.1-7.4-243.7-7.5-273.2 0-17 0-17.2 2.6-20.2 1.4-1.7 2.2-3.1 1.7-3-.4 0-9.4 2.9-19.9 6.3zM1192.7 603c-11.4 3.7-21.4 7.4-22.3 8.1-4.5 3.7-4.6 4.9-3.5 42.4l1 35.3 2.5 2.7c1.4 1.5 2.8 4.2 3 5.9.5 2.8 3.6 121.7 3.6 134.8 0 4.6-.5 6.2-2.6 8.8l-2.7 3.1.8 28.7c.7 31.1 1.4 36.5 5.2 38.9 2.2 1.5 3.5 1.2 23.6-5.2 11.6-3.7 21.4-6.9 21.7-7.2.3-.2-.3-.9-1.4-1.5-4.5-2.5-4.4-.6-8.2-144-1.9-75-3.4-140-3.2-144.5.3-7 .6-8.5 2.7-10.7 1.4-1.4 2-2.6 1.5-2.5-.5 0-10.2 3.1-21.7 6.9zM964.3 603.9c-14.2 4.6-22.4 7.8-25 9.7-3.7 2.8-46.2 47.4-49.2 51.7-1.3 1.8-1.2 14.1.8 97.7 1.3 53.3 2.8 95.9 3.3 96.5 1.3 1.5 30.4 1.6 136.3.7l95-.9 20.5-6.7c11.2-3.7 20.7-6.9 20.9-7.2.3-.3-5.5-.3-12.9 0s-58.4.8-113.2 1.2c-92.8.5-100 .4-102.6-1.2-6.3-3.7-5.9.3-8.2-87-1.2-43.9-2-83.8-1.8-88.5.5-12.8 2.3-15.6 28.7-43.6 12.4-13.1 24.2-25 26.4-26.6 2.2-1.5 3.6-2.7 3.1-2.6-.5 0-10.4 3.1-22.1 6.8zM210.5 657c-52.6.4-68.5.8-70.2 1.8-2.8 1.6-5.3 6.2-5.3 9.8v2.7l65.3-.6 65.2-.5 20.5-6.6c11.3-3.7 21-6.8 21.5-7 .6-.3-5.7-.4-14-.3-8.2.1-45.6.4-83 .7zM427.3 658.1c-4.2 1.2-7.3 5.3-7.3 9.5v3.4h71l3.2 2.9c2.9 2.5 3.3 3.6 3.9 10.2.4 4.1.8 10.8.8 14.9l.1 7.5 11.5 11.5c17.3 17.2 17.3 18.2.7 36l-10.4 11 .2 16.3c.1 8.9.5 28.2.9 42.8.8 29.4.9 30 7.4 33.9 2.9 1.8 5.2 2 23.2 2h20l21.5-6.7 21.4-6.8-20.4-.5c-21.7-.5-23.4-.9-26.5-5.6-2.3-3.6-2.2-1.9-4.6-94.8-2.1-85.2-2-83.4-7.1-87-2-1.4-8.6-1.6-54.3-1.5-28.6 0-53.4.5-55.2 1z"/>
  <path d="M1022.8 658.6c-3.2 1-6.7 3.3-10.5 6.9l-5.8 5.4 25.1.1c28.1 0 25.6.4 55.4-9.4l13.5-4.4H1064c-29.2-.1-37.4.2-41.2 1.4zM1282.5 657.7c-5.8 1.2-9.5 5.4-9.5 10.8v2.5h35c24.2 0 35.7.4 37.4 1.2 5.1 2.3 6.1 5.2 6.4 19.8l.4 13.5 11.8 12c17.2 17.4 17.2 18.7 1 35.9l-11 11.7v7.7c0 4.2.5 23.4 1 42.7 1.2 38.8 1.3 39.3 8 42.7 3 1.5 6.5 1.8 23 1.8h19.5l21.8-6.7 21.7-6.8-20.7-.5c-22.5-.5-23.6-.8-26.8-6.3-1.7-2.8-2-10.8-4-88.7-1.5-58.5-2.6-86.2-3.3-87.7-.7-1.2-2.4-3.1-3.8-4.2-2.6-2.1-3.5-2.1-54.3-2-28.4.1-52.5.3-53.6.6zM1044.9 697.5c-10.7 3.4-21.4 7.2-23.6 8.3-2.3 1.2-9.7 8.1-17.2 15.9L991 735.5l.3 15 .2 15 34-.4c29.1-.3 34.5-.1 37.7 1.2 4.2 1.8 6.2 5.1 7.2 11.9l.7 4.8h16.5c18.7 0 22.2-.9 24.9-6.1 1.3-2.4 1.6-5.1 1.3-11-.3-7.3-.5-8.1-3.6-11.1l-3.3-3.3h-46.2c-25.4 0-46.8-.4-47.4-.8-.7-.5-1.3-1.7-1.3-2.7 0-2.3 46.6-52.2 51.4-55.1 4.4-2.7 3.4-2.4-18.5 4.6zM468 697c-3 1.1-12.2 4-20.5 6.6-14.7 4.6-15.1 4.8-20.8 10.5l-5.9 5.8.4 12c.3 13.2 1.1 15.1 5.2 13.5 1.4-.5 10.7-9.7 20.7-20.4s20.5-21.9 23.3-24.8c5.6-5.7 5.5-5.9-2.4-3.2z"/>
  <path d="M1307 701.6c-10.7 3.5-20.3 6.6-21.2 6.9-.9.3-4 3.3-6.9 6.6l-5.2 6 .8 11.1c.8 13.1 1 13.8 4 13.8 2 0 8.9-7 46.1-46.7 2.2-2.3 3.6-4.3 3-4.2-.6.1-9.9 3-20.6 6.5zM706.3 712.6c-.3.9-.3 12.7 0 26.2l.6 24.6 62.8 62.9c34.5 34.6 64.6 64.2 66.7 65.8 2.1 1.6 4.8 2.9 6 2.9 3.6.1 45.3-13.5 42.7-13.8-1.6-.3-30.2-28-87.9-85.3-86.8-86.1-89-88.1-90.9-83.3zM179 752c-19 .3-35.3.9-36.2 1.3-2.6 1.3-5.8 7-5.8 10.2v2.8l35.8-.7 35.7-.7 21-6.6c11.6-3.6 21.2-6.7 21.4-6.9.5-.4-15.7-.3-71.9.6z"/>
</svg>
